<svg height="512pt" viewBox="0 -31 512.00025 512" width="512pt" xmlns="http://www.w3.org/2000/svg" xmlns:xlink="http://www.w3.org/1999/xlink"><linearGradient id="a" gradientUnits="userSpaceOnUse" x1="-.00025" x2="512.00025" y1="224.500325" y2="224.500325"><stop offset="0" stop-color="#80d8ff"/><stop offset="1" stop-color="#ea80fc"/></linearGradient><path d="m210.410156 116.9375c-13.316406-7.929688-30.238281 1.679688-30.238281 17.179688v180.765624c0 15.546876 16.988281 25.074219 30.238281 17.179688l151.65625-90.378906c12.964844-7.726563 13.039063-26.59375 0-34.363282zm9.761719 162.742188v-110.359376l92.589844 55.179688zm289.152344-65.175782-118-204.5c-3.574219-6.191406-10.175781-10.003906-17.324219-10.003906h-236c-7.148438 0-13.75 3.8125-17.324219 10.003906l-118 204.5c-3.566406 6.1875-3.566406 13.804688 0 19.992188l118 204.5c3.574219 6.191406 10.175781 10.003906 17.324219 10.003906h236c7.148438 0 13.75-3.8125 17.324219-10.003906l118-204.5c3.570312-6.1875 3.570312-13.804688 0-19.992188zm-146.875 194.496094h-212.898438l-106.460937-184.5 106.460937-184.5h212.898438l106.460937 184.5zm0 0" fill="url(#a)"/></svg>